<?xml version="1.0" encoding="UTF-8"?>
<svg width="75px" height="18px" viewBox="0 0 75 18" version="1.1" xmlns="http://www.w3.org/2000/svg" xmlns:xlink="http://www.w3.org/1999/xlink">
    <title>logo</title>
    <defs>
        <linearGradient x1="85.5294713%" y1="50%" x2="21.3696799%" y2="50%" id="linearGradient-1">
            <stop stop-color="#FC000E" offset="0%"></stop>
            <stop stop-color="#FFFF0F" offset="100%"></stop>
        </linearGradient>
    </defs>
    <g id="New-menu" stroke="none" stroke-width="1" fill="none" fill-rule="evenodd">
        <g id="M--Home-page---Menu-Déconnecté---Ouvert" transform="translate(-15.000000, -84.000000)">
            <g id="Group-11" transform="translate(-1.000000, 70.000000)">
                <g id="Logo-/-Logo" transform="translate(16.000000, 14.000000)">
                    <g id="🎨-Color-/-Logo-Grandient-2" transform="translate(26.383999, 4.276388)" fill="url(#linearGradient-1)">
                        <polygon id="Gradient" transform="translate(7.852001, 6.341270) scale(1, -1) translate(-7.852001, -6.341270) " points="0 12.6825397 15.7040029 12.6825397 15.7040029 -1.91733754e-15 0 -1.91733754e-15"></polygon>
                    </g>
                    <path d="M71.3537985,9.22090149 C71.1899048,8.46503614 70.9198733,7.88353248 70.5440064,7.47698661 C70.1388079,7.03854894 69.5219386,6.81858497 68.6955152,6.81858497 C68.1548474,6.81858497 67.7055005,6.90949149 67.3477768,7.08921815 C66.9897507,7.26954091 66.7033903,7.49278348 66.488998,7.7592439 C66.2740009,8.02600237 66.1228074,8.30825965 66.0351152,8.60601576 C65.9676829,8.83551746 65.9214177,9.0465398 65.8972268,9.23878474 C65.8854337,9.32790293 65.9598209,9.40539701 66.0508393,9.40539701 L71.2016979,9.40539701 C71.2993688,9.40539701 71.3740584,9.3150866 71.3537985,9.22090149 Z M74.7943567,11.2092208 C74.7880066,11.3835825 74.6386274,11.5212835 74.4617311,11.5212835 L66.0444892,11.5212835 C65.9555875,11.5212835 65.8839218,11.5969892 65.8896671,11.6843191 C65.9574018,12.6819064 66.2322715,13.411841 66.7154858,13.8729308 C67.2244029,14.3587591 67.9561792,14.6016732 68.9102099,14.6016732 C69.5939067,14.6016732 70.1823516,14.4335707 70.6755447,14.0958753 C71.0873956,13.8145122 71.3661964,13.5185444 71.5116445,13.2094622 C71.5648645,13.0962016 71.6809811,13.0261589 71.8073788,13.0261589 L74.0946334,13.0261589 C74.3280761,13.0261589 74.487434,13.2589392 74.4039752,13.4738363 C73.9295301,14.699733 73.2506715,15.5927033 72.3686089,16.1536412 C71.3825252,16.7807472 70.1896089,17.0943001 68.7907671,17.0943001 C67.8204075,17.0943001 66.946207,16.9411003 66.1672583,16.6355948 C65.3871001,16.3300893 64.7272919,15.8952282 64.1869265,15.3304156 C63.6465611,14.765901 63.2286624,14.0925967 62.9341375,13.3084162 C62.6402174,12.5248318 62.492955,11.6622631 62.492955,10.7219022 C62.492955,9.8131351 62.6438461,8.96636324 62.946233,8.18277885 C63.2483175,7.39889642 63.6780093,6.72141932 64.2347036,6.14855923 C64.7910955,5.5765933 65.4548348,5.12593541 66.2268285,4.79658556 C66.9976127,4.46753377 67.8524605,4.30300788 68.7907671,4.30300788 C69.8406544,4.30300788 70.7550724,4.50240611 71.5340211,4.90269285 C72.3129697,5.30208542 72.9534252,5.83917901 73.4544803,6.51337752 C73.9555354,7.18727797 74.3168878,7.95536353 74.5400493,8.81733616 C74.7375079,9.58393145 74.8224787,10.3812263 74.7943567,11.2092208 Z M60.9217527,-3.86535229e-15 C61.1043944,-3.86535229e-15 61.2531687,0.146344592 61.2531687,0.326667357 L61.2531687,2.42467058 C61.2531687,2.60469529 61.1043944,2.75103988 60.9217527,2.75103988 L58.1969443,2.75103988 C58.0140002,2.75103988 57.8658306,2.60469529 57.8658306,2.42467058 L57.8658306,0.326667357 C57.8658306,0.146344592 58.0140002,-3.86535229e-15 58.1969443,-3.86535229e-15 L60.9217527,-3.86535229e-15 Z M60.9217527,4.63205967 C61.1043944,4.63205967 61.2531687,4.77810621 61.2531687,4.95842897 L61.2531687,16.4615311 C61.2531687,16.642152 61.1043944,16.7881985 60.9217527,16.7881985 L58.1969443,16.7881985 C58.0140002,16.7881985 57.8658306,16.642152 57.8658306,16.4615311 L57.8658306,4.95842897 C57.8658306,4.77810621 58.0140002,4.63205967 58.1969443,4.63205967 L60.9217527,4.63205967 Z M55.9858912,4.63205967 C56.1682305,4.63205967 56.3167025,4.77810621 56.3167025,4.95842897 L56.3167025,6.53930823 C56.3167025,6.71963099 56.1682305,6.86597558 55.9858912,6.86597558 L53.7687904,6.86597558 C53.6829126,6.86597558 53.6142707,6.93422999 53.6142707,7.0179832 L53.6142707,12.8848813 C53.6142707,13.4496939 53.7095226,13.8255402 53.9006311,14.0136123 C54.0914373,14.2019826 54.4733519,14.2961677 55.045468,14.2961677 C55.2362741,14.2961677 55.4186134,14.2881202 55.5946026,14.2726214 C55.6390534,14.2684487 55.6835043,14.2636798 55.727048,14.259209 C55.9239019,14.2365569 56.0947505,14.3864781 56.0947505,14.5820016 L56.0947505,16.5044509 C56.0947505,16.6704671 55.9698647,16.8093603 55.8029471,16.8299261 C55.5967193,16.8543665 55.3756745,16.8716537 55.1407198,16.8826817 C54.7911606,16.8972863 54.449161,16.9059299 54.1150234,16.9059299 C53.5906846,16.9059299 53.0929557,16.8707595 52.624256,16.8001207 C52.1552539,16.7297799 51.7415886,16.5923769 51.3835625,16.3888059 C51.0261412,16.1852349 50.7437118,15.8949302 50.5371816,15.5184878 C50.3300466,15.1426415 50.2269326,14.6484677 50.2269326,14.0374567 L50.2269326,1.31441884 C50.2269326,1.13379802 50.3754046,0.98775148 50.5583487,0.98775148 L53.2825523,0.98775148 C53.4657988,0.98775148 53.6142707,1.13379802 53.6142707,1.31441884 L53.6142707,4.48005205 C53.6142707,4.56380527 53.6829126,4.63205967 53.7687904,4.63205967 L55.9858912,4.63205967 Z M41.8964758,4.32715027 C45.4728057,4.32715027 48.3720914,7.18489353 48.3720914,10.7102781 C48.3720914,14.2353646 45.4728057,17.0931079 41.8964758,17.0931079 C38.3201459,17.0931079 35.4205578,14.2353646 35.4205578,10.7102781 C35.4205578,7.18489353 38.3201459,4.32715027 41.8964758,4.32715027 Z" id="Shape" fill="#000000"></path>
                    <path d="M5.53691351,4.30360399 C6.20518857,4.30360399 6.85259893,4.36649341 7.48095892,4.49167616 C8.10901652,4.61775307 8.66994423,4.82937152 9.16313727,5.12653152 C9.65572554,5.42458568 10.0651574,5.8204016 10.3914329,6.31457539 C10.5671197,6.58133386 10.7037985,6.88743548 10.8026791,7.23079387 C10.8555968,7.41469329 10.7367587,7.605746 10.546255,7.64240667 L8.2248307,8.09068012 C8.06275132,8.12197581 7.90218388,8.02868485 7.84896378,7.87488891 C7.67357938,7.36819684 7.39659297,7.07312322 7.01619025,6.87849386 C6.57047195,6.65137659 6.04583067,6.5375199 5.44166164,6.5375199 C5.2508555,6.5375199 5.04432524,6.54914401 4.82146609,6.57298835 C4.59830456,6.59623657 4.39600772,6.64779994 4.21336603,6.72559208 C4.02951479,6.80457643 3.87499508,6.91753895 3.74829497,7.06656603 C3.62008292,7.21618922 3.55718645,7.41558745 3.55718645,7.66654905 C3.55718645,7.96430516 3.66846483,8.20692124 3.89102159,8.39499341 C4.11357835,8.58336364 4.40386978,8.73626543 4.76189587,8.85369876 C5.11931719,8.9711321 5.52874906,9.07694133 5.99019148,9.17112644 C6.45102912,9.26471545 6.92063599,9.36694802 7.39780252,9.47663195 C7.89039079,9.58661394 8.37209313,9.7201422 8.84079283,9.87632258 C9.30979492,10.0330991 9.72769362,10.2408428 10.0932794,10.4995538 C10.4588652,10.7579668 10.75339,11.0795672 10.9762491,11.463461 C11.1985035,11.8476528 11.3097819,12.3218569 11.3097819,12.8860735 C11.3097819,13.6857528 11.1467954,14.3557785 10.8205199,14.8964488 C10.4945468,15.437119 10.0693908,15.8722781 9.54444716,16.2010318 C9.02010826,16.5309778 8.41926548,16.7619697 7.74312837,16.895498 C7.06699125,17.0284302 6.37966581,17.0945982 5.6802449,17.0945982 C4.9644951,17.0945982 4.2647718,17.0242574 3.58077262,16.8832778 C2.89677345,16.7422982 2.28897577,16.5071334 1.75617004,16.1777836 C1.22306193,15.8490299 0.786112853,15.4138708 0.444113264,14.8726044 C0.247259389,14.562032 0.102416061,14.2049631 0.008676121,13.8034842 C-0.0336580456,13.6216711 0.0830632995,13.43956 0.268728859,13.4040916 L2.65970211,12.9444921 C2.83055071,12.9114081 2.99444442,13.0169192 3.04282632,13.1820412 C3.10542041,13.3972363 3.19039113,13.5811358 3.29441223,13.758478 C3.44560568,14.0168909 3.67572211,14.2380471 3.91491015,14.402573 C4.15319103,14.5670989 4.42775834,14.6890031 4.73770492,14.7670933 C5.0476515,14.8460776 5.36969355,14.8845266 5.70413347,14.8845266 C5.94271674,14.8845266 6.19339548,14.8574037 6.45586731,14.8022636 C6.71803676,14.7474217 6.95631764,14.661284 7.17131473,14.5438507 C7.38600943,14.4261193 7.56441771,14.2699389 7.70805148,14.0738193 C7.85108049,13.8776997 7.9224438,13.6309108 7.9224438,13.3325586 C7.9224438,12.8315296 7.58437524,12.4550872 6.90854051,12.2041256 C6.23270578,11.953462 5.2901658,11.7027985 4.08182773,11.4518369 C3.5883323,11.3421529 3.10723473,11.2130955 2.63883742,11.0637703 C2.16923055,10.9150413 1.75193663,10.7192197 1.38604847,10.4760075 C1.0204627,10.2333915 0.726240245,9.9275879 0.503683484,9.5588949 C0.280824335,9.19079802 0.170150728,8.74043818 0.170150728,8.20692124 C0.170150728,7.42303881 0.324670436,6.78103015 0.6349194,6.27880889 C0.944865977,5.77777985 1.35429785,5.38196393 1.86351739,5.09136113 C2.37213217,4.80165249 2.94455058,4.59778344 3.58077262,4.4803501 C4.21669228,4.36261871 4.86924322,4.30360399 5.53691351,4.30360399 Z M26.4666231,4.32804443 C30.0432554,4.32804443 32.9422387,7.1857877 32.9422387,10.7111723 C32.9422387,14.2362588 30.0432554,17.0940021 26.4666231,17.0940021 C22.8902932,17.0940021 19.9910075,14.2362588 19.9910075,10.7111723 C19.9910075,7.1857877 22.8902932,4.32804443 26.4666231,4.32804443 Z M15.939023,0.988645642 C16.1219671,0.988645642 16.2707415,1.13469218 16.2707415,1.315313 L16.2707415,4.48094621 C16.2707415,4.56469943 16.3393833,4.63295383 16.4249588,4.63295383 L18.6417572,4.63295383 C18.8247013,4.63295383 18.9731732,4.77900037 18.9731732,4.95962119 L18.9731732,6.54020239 C18.9731732,6.72052515 18.8247013,6.86686975 18.6417572,6.86686975 L16.4249588,6.86686975 C16.3393833,6.86686975 16.2707415,6.93512415 16.2707415,7.01887737 L16.2707415,12.8860735 C16.2707415,13.450588 16.3659933,13.8267324 16.5571019,14.0145065 C16.747908,14.2028767 17.1295203,14.2970619 17.7019387,14.2970619 C17.8927448,14.2970619 18.0747817,14.2890144 18.2507709,14.2735156 C18.2955242,14.2693428 18.3393703,14.2645739 18.3835188,14.2601031 C18.5800703,14.237451 18.7512212,14.3870742 18.7512212,14.5828958 L18.7512212,16.5053451 C18.7512212,16.6713613 18.6263354,16.8105526 18.4591155,16.8308202 C18.2528876,16.8552607 18.0321452,16.8725478 17.7968882,16.8832778 C17.4473289,16.8984785 17.1053293,16.9068241 16.7714942,16.9068241 C16.2468529,16.9068241 15.7494264,16.8713556 15.2804243,16.8010148 C14.8114223,16.7306741 14.397757,16.5932711 14.0400333,16.3897001 C13.6826119,16.1864272 13.3998802,15.8958244 13.1933499,15.519382 C12.9862149,15.1435357 12.8827986,14.6493619 12.8827986,14.0383508 L12.8827986,1.315313 C12.8827986,1.13469218 13.0315729,0.988645642 13.2142146,0.988645642 L15.939023,0.988645642 Z" id="Combined-Shape" fill="#000000"></path>
                </g>
            </g>
        </g>
    </g>
</svg>